HIERARCHY
ROOT hip
{
  OFFSET 0 0 0
  CHANNELS 6 Xposition Yposition Zposition Zrotation Yrotation Xrotation
  JOINT abdomen
  {
    OFFSET 0 20.6881 -0.73152
    CHANNELS 3 Zrotation Xrotation Yrotation
    JOINT chest
    {
      OFFSET 0 11.7043 -0.48768
      CHANNELS 3 Zrotation Xrotation Yrotation
      JOINT neck
      {
        OFFSET 0 22.1894 -2.19456
        CHANNELS 3 Zrotation Xrotation Yrotation
        JOINT head
        {
          OFFSET -0.24384 7.07133 1.2192
          CHANNELS 3 Zrotation Xrotation Yrotation
          JOINT leftEye
          {
            OFFSET 4.14528 8.04674 8.04672
            CHANNELS 3 Zrotation Xrotation Yrotation
            End Site
            {
              OFFSET 1 0 0
            }
          }
          JOINT rightEye
          {
            OFFSET -3.6576 8.04674 8.04672
            CHANNELS 3 Zrotation Xrotation Yrotation
            End Site
            {
              OFFSET 1 0 0
            }
          }
        }
      }
      JOINT rCollar
      {
        OFFSET -2.68224 19.2634 -4.8768
        CHANNELS 3 Zrotation Xrotation Yrotation
        JOINT rShldr
        {
          OFFSET -8.77824 -1.95073 1.46304
          CHANNELS 3 Zrotation Xrotation Yrotation
          JOINT rForeArm
          {
            OFFSET -28.1742 -1.7115 0.48768
            CHANNELS 3 Zrotation Xrotation Yrotation
            JOINT rHand
            {
              OFFSET -22.5879 0.773209 7.07136
              CHANNELS 3 Zrotation Xrotation Yrotation
              JOINT rThumb1
              {
                OFFSET -1.2192 -0.487915 3.41376
                CHANNELS 3 Zrotation Xrotation Yrotation
                JOINT rThumb2
                {
                  OFFSET -3.37035 -0.52449 3.41376
                  CHANNELS 3 Zrotation Xrotation Yrotation
                  End Site
                  {
                    OFFSET -1.78271 -1.18214 1.43049
                  }
                }
              }
              JOINT rIndex1
              {
                OFFSET -7.75947 0.938293 5.60832
                CHANNELS 3 Zrotation Xrotation Yrotation
                JOINT rIndex2
                {
                  OFFSET -2.54057 -0.884171 1.56538
                  CHANNELS 3 Zrotation Xrotation Yrotation
                  End Site
                  {
                    OFFSET -1.62519 -0.234802 1.16502
                  }
                }
              }
              JOINT rMid1
              {
                OFFSET -8.24714 1.18213 3.41376
                CHANNELS 3 Zrotation Xrotation Yrotation
                JOINT rMid2
                {
                  OFFSET -3.10165 -0.590103 1.0647
                  CHANNELS 3 Zrotation Xrotation Yrotation
                  End Site
                  {
                    OFFSET -2.48547 -0.328903 0.83742
                  }
                }
              }
              JOINT rRing1
              {
                OFFSET -8.82822 0.546677 1.51678
                CHANNELS 3 Zrotation Xrotation Yrotation
                JOINT rRing2
                {
                  OFFSET -2.60934 -0.819778 -0.0198488
                  CHANNELS 3 Zrotation Xrotation Yrotation
                  End Site
                  {
                    OFFSET -2.33842 -0.294052 0.168128
                  }
                }
              }
              JOINT rPinky1
              {
                OFFSET -8.27202 -0.0477905 -0.4584
                CHANNELS 3 Zrotation Xrotation Yrotation
                JOINT rPinky2
                {
                  OFFSET -1.82734 -0.647385 -0.700984
                  CHANNELS 3 Zrotation Xrotation Yrotation
                  End Site
                  {
                    OFFSET -1.69225 -0.51767 -0.607171
                  }
                }
              }
            }
          }
        }
      }
      JOINT lCollar
      {
        OFFSET 2.68224 19.2634 -4.8768
        CHANNELS 3 Zrotation Xrotation Yrotation
        JOINT lShldr
        {
          OFFSET 8.77824 -1.95073 1.46304
          CHANNELS 3 Zrotation Xrotation Yrotation
          JOINT lForeArm
          {
            OFFSET 28.1742 -1.7115 0.48768
            CHANNELS 3 Zrotation Xrotation Yrotation
            JOINT lHand
            {
              OFFSET 22.5879 0.773209 7.07136
              CHANNELS 3 Zrotation Xrotation Yrotation
              JOINT lThumb1
              {
                OFFSET 1.2192 -0.487915 3.41376
                CHANNELS 3 Zrotation Xrotation Yrotation
                JOINT lThumb2
                {
                  OFFSET 3.37035 -0.52449 3.41376
                  CHANNELS 3 Zrotation Xrotation Yrotation
                  End Site
                  {
                    OFFSET 1.78271 -1.18214 1.43049
                  }
                }
              }
              JOINT lIndex1
              {
                OFFSET 7.75947 0.938293 5.60832
                CHANNELS 3 Zrotation Xrotation Yrotation
                JOINT lIndex2
                {
                  OFFSET 2.54057 -0.884171 1.56538
                  CHANNELS 3 Zrotation Xrotation Yrotation
                  End Site
                  {
                    OFFSET 1.62519 -0.234802 1.16502
                  }
                }
              }
              JOINT lMid1
              {
                OFFSET 8.24714 1.18213 3.41376
                CHANNELS 3 Zrotation Xrotation Yrotation
                JOINT lMid2
                {
                  OFFSET 3.10165 -0.590103 1.0647
                  CHANNELS 3 Zrotation Xrotation Yrotation
                  End Site
                  {
                    OFFSET 2.48547 -0.328903 0.83742
                  }
                }
              }
              JOINT lRing1
              {
                OFFSET 8.82822 0.546677 1.51678
                CHANNELS 3 Zrotation Xrotation Yrotation
                JOINT lRing2
                {
                  OFFSET 2.60934 -0.819778 -0.0198488
                  CHANNELS 3 Zrotation Xrotation Yrotation
                  End Site
                  {
                    OFFSET 2.33842 -0.294052 0.168128
                  }
                }
              }
              JOINT lPinky1
              {
                OFFSET 8.27202 -0.0477905 -0.4584
                CHANNELS 3 Zrotation Xrotation Yrotation
                JOINT lPinky2
                {
                  OFFSET 1.82734 -0.647385 -0.700984
                  CHANNELS 3 Zrotation Xrotation Yrotation
                  End Site
                  {
                    OFFSET 1.69225 -0.51767 -0.607171
                  }
                }
              }
            }
          }
        }
      }
    }
  }
  JOINT rButtock
  {
    OFFSET -8.77824 4.35084 1.2192
    CHANNELS 3 Zrotation Xrotation Yrotation
    JOINT rThigh
    {
      OFFSET 0 -1.70687 -2.19456
      CHANNELS 3 Zrotation Xrotation Yrotation
      JOINT rShin
      {
        OFFSET 0 -36.8199 0.73152
        CHANNELS 3 Zrotation Xrotation Yrotation
        JOINT rFoot
        {
          OFFSET 0.73152 -45.1104 -5.12064
          CHANNELS 3 Zrotation Xrotation Yrotation
          End Site
          {
            OFFSET -1.1221 -3.69964 12.103
          }
        }
      }
    }
  }
  JOINT lButtock
  {
    OFFSET 8.77824 4.35084 1.2192
    CHANNELS 3 Zrotation Xrotation Yrotation
    JOINT lThigh
    {
      OFFSET 0 -1.70687 -2.19456
      CHANNELS 3 Zrotation Xrotation Yrotation
      JOINT lShin
      {
        OFFSET 0 -36.8199 0.73152
        CHANNELS 3 Zrotation Xrotation Yrotation
        JOINT lFoot
        {
          OFFSET -0.73152 -45.1104 -5.12064
          CHANNELS 3 Zrotation Xrotation Yrotation
          End Site
          {
            OFFSET 1.1221 -3.69964 12.103
          }
        }
      }
    }
  }
}
MOTION
Frames:	4
Frame Time:	0.00833333
0.0 0.0 0.0 0.0 0.0 0.0 0.0 0.0 0.0 0.0 0.0 0.0 0.0 0.0 0.0 0.0 0.0 0.0 0.0 0.0 0.0 0.0 0.0 0.0 0.0 0.0 0.0 0.0 0.0 0.0 0.0 0.0 0.0 0.0 0.0 0.0 0.0 0.0 0.0 0.0 0.0 0.0 0.0 0.0 0.0 0.0 0.0 0.0 0.0 0.0 0.0 0.0 0.0 0.0 0.0 0.0 0.0 0.0 0.0 0.0 0.0 0.0 0.0 0.0 0.0 0.0 0.0 0.0 0.0 0.0 0.0 0.0 0.0 0.0 0.0 0.0 0.0 0.0 0.0 0.0 0.0 0.0 0.0 0.0 0.0 0.0 0.0 0.0 0.0 0.0 0.0 0.0 0.0 0.0 0.0 0.0 0.0 0.0 0.0 0.0 0.0 0.0 0.0 0.0 0.0 0.0 0.0 0.0 0.0 0.0 0.0 0.0 0.0 0.0 0.0 0.0 0.0 0.0 0.0 0.0 0.0 0.0 0.0 0.0 0.0 0.0 0.0 0.0 0.0 0.0 0.0 0.0
82.55510000000001 83.6494 -9.982000000000001 -175.277204 -87.324011 -179.638785 -0.957346 -3.134144 65.143291 1.349992 -1.878564 -63.828914 0.437611 3.114456 12.838312 -0.078785 -5.085736 -15.093163 -0.003514 -0.0 0.000646 -0.003779 -0.0 0.001013 -59.829441 -86.721659 -81.630273 90.402497 87.005874 -90.132269 168.242448 10.985604 131.222191 176.191555 -1.94808 144.798751 -0.474762 0.467923 0.075 -26.972035 22.136879 24.072966 -153.454044 -21.067542 121.744426 -4.692935 28.207338 -1.854288 -89.83587 60.70159 81.262414 3.629395 -0.579911 0.093331 -0.022083 -1.725344 -0.541228 -146.607811 49.111368 161.26364 0.098362 0.258419 0.090996 15.15377 44.003144 8.723427 155.445898 -3.134435 -161.757938 74.901365 64.993861 -71.613848 150.623129 -5.46881 -150.442143 -74.507649 -68.91215 -60.462013 171.705339 -9.388695 -89.949107 149.622832 5.208664 -77.402718 27.169894 30.470239 -19.888606 -179.862946 -33.519628 -107.746788 36.03449 51.723933 -29.831048 4.591291 20.810251 -4.364262 -0.000198 -0.018307 0.007013 156.528463 -27.666773 -175.088216 126.798226 -26.621015 124.514423 160.047924 52.825749 147.284485 179.995953 75.748096 0.004175 -174.958655 65.385615 -173.408119 2.196346 -17.914615 99.297514 -38.576692 -57.311485 58.401138 0.007065 -0.000244 0.007065 1.416143 -7.291339 0.207679 5.161286 17.437159 106.732263 -101.839578 -57.543853 157.212166
82.5021 83.5865 -9.9176 -178.423224 -87.402328 -176.722773 -0.497536 -7.55294 130.899444 0.381074 -2.619609 -128.278396 5.012286 8.973582 50.923427 -11.575618 -6.29225 -56.786556 0.001659 -0.0 -0.00144 0.001659 -0.0 -0.00144 0.035351 -0.209309 -0.047205 -120.240356 -17.364037 -174.258141 -135.271022 1.591585 -162.816903 9.18195 -30.501952 2.390327 93.028221 -51.08393 40.501202 -138.22352 18.097137 99.910526 -35.097048 35.161234 26.612304 14.044181 -10.241556 -2.732737 -39.289987 53.365203 32.879539 -163.088944 -4.758977 143.248068 0.000334 -0.018252 -0.007521 -77.413014 78.791994 90.825357 0.09783 0.258334 0.092089 2.499528 0.04647 0.031439 143.334428 38.770882 -147.774071 114.103061 39.471461 -96.414124 -92.49766 -83.962455 -26.493349 -163.657353 -26.76398 -142.30689 0.491492 0.484749 -0.076998 122.682127 -14.295021 -110.08707 179.421317 -58.426427 -117.044541 156.235262 -12.896104 -118.400535 -89.035067 -81.393471 -59.760011 42.443719 58.391001 -36.313341 -0.003482 0.605567 -0.190604 115.608952 74.72855 -129.233766 -54.202047 87.260252 14.484249 156.430792 38.256857 147.235025 179.992187 75.748975 0.008061 -174.232046 65.305608 -5.19572 5.244694 15.737763 40.619253 -95.387576 53.301956 22.72135 -179.98621 75.750756 -0.011346 -174.935179 60.382484 177.274317 5.173063 -32.51762 35.44531 -176.140329 17.029604 -152.691858
82.4511 83.57759999999999 -9.8622 179.710714 -87.482689 -175.087737 1.478432 -5.226744 0.19607 -0.201005 -2.853213 3.865372 -8.117357 10.957781 -17.160229 16.299872 -12.488884 11.448553 0.005353 -0.0 -0.001854 -0.000281 0.0 -0.000979 -78.727714 68.390876 81.807765 81.206509 -11.943342 71.533534 -179.70244 50.578229 93.651509 172.72382 -17.401354 143.39206 93.028701 -51.08465 40.500521 -118.114341 32.58334 78.993736 -152.464854 -19.226324 121.473441 -79.108415 57.461487 61.630922 -160.672116 -6.668133 143.244778 2.871048 1.019992 0.49754 0.001973 0.036324 0.01147 9.785618 6.859998 0.828477 13.635356 46.898374 11.156474 -160.295458 53.951435 -149.400111 13.744561 42.431244 -15.570298 97.553708 -2.219883 -146.989472 -18.693987 -34.103904 65.034447 -164.263776 -22.60651 -143.806234 12.304947 11.515172 -3.094961 -18.796505 -20.917399 4.445518 0.326685 0.530074 -0.186679 86.488533 47.212564 -67.729231 39.28777 53.366451 -32.877709 34.340666 55.116638 -29.143068 0.020762 -1.725391 0.540953 156.366066 -26.320512 -174.937491 145.256487 12.331106 141.898441 -23.564884 60.384914 -5.701565 0.004555 -0.001695 0.002277 2.925994 -14.635446 180.0 -5.688223 -33.443362 -26.051278 3.384847 15.634482 170.225124 -0.000651 -0.001744 0.000837 3.822714 -20.287084 -169.092103 -8.646007 -30.536517 -172.060997 -117.052653 -1.122434 3.398481
